<svg width="129" height="29" viewBox="0 0 129 29" fill="none" xmlns="http://www.w3.org/2000/svg">
<path d="M38.7367 20V18.4367L46.8585 8.51809L47.128 9.39855H38.8625V7.42201H49.2303V8.98527L41.1086 18.9039L40.8211 18.0235H49.4639V20H38.7367ZM51.6037 20V7.42201H53.9397V20H51.6037ZM57.3417 20V7.42201H59.2644L67.1526 17.1071H66.2002V7.42201H68.5182V20H66.5956L58.7074 10.3149H59.6597V20H57.3417ZM74.0268 13.2079H80.2978V15.1844H74.0268V13.2079ZM74.2245 20H71.8886V7.42201H81.0705V9.38058H74.2245V20ZM83.3295 20V7.42201H85.6654V18.0235H92.2419V20H83.3295ZM96.2423 12.6509H102.495V14.5735H96.2423V12.6509ZM96.422 18.0414H103.52V20H94.086V7.42201H103.268V9.38058H96.422V18.0414ZM108.28 12.6509H114.533V14.5735H108.28V12.6509ZM108.459 18.0414H115.557V20H106.124V7.42201H115.306V9.38058H108.459V18.0414ZM120.713 20V9.39855H116.544V7.42201H127.217V9.39855H123.049V20H120.713Z" fill="black"/>
<path d="M0 9.03738C0 4.04617 4.04617 0 9.03738 0H34.2364V18.9742C34.2364 23.9654 30.1902 28.0116 25.199 28.0116H0V9.03738Z" fill="#FF6E2D"/>
<path d="M23.9058 19.0636C23.9058 19.6941 23.6553 20.2989 23.2094 20.7447C22.7636 21.1906 22.1588 21.4411 21.5283 21.4411C20.8977 21.4411 20.293 21.1906 19.8471 20.7447C19.4012 20.2989 19.1507 19.6941 19.1507 19.0636C19.1507 18.433 19.4012 17.8283 19.8471 17.3824C20.293 16.9365 20.8977 16.686 21.5283 16.686C22.1588 16.686 22.7636 16.9365 23.2094 17.3824C23.6553 17.8283 23.9058 18.433 23.9058 19.0636ZM14.3957 19.0636C14.3957 19.6941 14.1452 20.2989 13.6993 20.7447C13.2534 21.1906 12.6487 21.4411 12.0182 21.4411C11.3876 21.4411 10.7829 21.1906 10.337 20.7447C9.89111 20.2989 9.64062 19.6941 9.64062 19.0636C9.64062 18.433 9.89111 17.8283 10.337 17.3824C10.7829 16.9365 11.3876 16.686 12.0182 16.686C12.6487 16.686 13.2534 16.9365 13.6993 17.3824C14.1452 17.8283 14.3957 18.433 14.3957 19.0636Z" stroke="white" stroke-width="1.69451" stroke-linecap="round" stroke-linejoin="round"/>
<path d="M19.1494 19.0635H14.3943M23.9044 19.0635H24.63C24.8393 19.0635 24.9439 19.0635 25.0314 19.0521C25.3462 19.0129 25.639 18.8698 25.8634 18.6456C26.0878 18.4213 26.2311 18.1287 26.2705 17.8139C26.2819 17.7254 26.2819 17.6208 26.2819 17.4116V14.784C26.2819 13.1445 25.6307 11.5722 24.4714 10.4129C23.3121 9.25365 21.7398 8.60238 20.1004 8.60238M7.26172 6.22485H16.7718C18.1166 6.22485 18.7889 6.22485 19.2064 6.6433C19.6249 7.05984 19.6249 7.73221 19.6249 9.07789V17.1615M7.26172 14.5462V16.686C7.26172 17.5752 7.26172 18.0193 7.45287 18.3502C7.57807 18.5671 7.75814 18.7471 7.97498 18.8723C8.30593 19.0635 8.75005 19.0635 9.63925 19.0635M7.26172 9.07789H12.9678M7.26172 11.9309H11.0658" stroke="white" stroke-width="1.69451" stroke-linecap="round" stroke-linejoin="round"/>
</svg>
