<svg width="137" height="27" viewBox="0 0 137 27" fill="none" xmlns="http://www.w3.org/2000/svg">
<path d="M37.82 22V20.26L46.86 9.22L47.16 10.2H37.96V8H49.5V9.74L40.46 20.78L40.14 19.8H49.76V22H37.82ZM52.1417 22V8H54.7417V22H52.1417ZM58.5284 22V8H60.6684L69.4484 18.78H68.3884V8H70.9684V22H68.8284L60.0484 11.22H61.1084V22H58.5284ZM77.0998 14.44H84.0798V16.64H77.0998V14.44ZM77.3198 22H74.7198V8H84.9398V10.18H77.3198V22ZM87.4542 22V8H90.0542V19.8H97.3742V22H87.4542ZM101.827 13.82H108.787V15.96H101.827V13.82ZM102.027 19.82H109.927V22H99.4269V8H109.647V10.18H102.027V19.82ZM115.225 13.82H122.185V15.96H115.225V13.82ZM115.425 19.82H123.325V22H112.825V8H123.045V10.18H115.425V19.82ZM129.064 22V10.2H124.424V8H136.304V10.2H131.664V22H129.064Z" fill="#04009A"/>
<path d="M0 8C0 3.58172 3.58172 0 8 0H33V19C33 23.4183 29.4183 27 25 27H0V8Z" fill="#04009A"/>
<path d="M23.0417 18.3752C23.0417 18.983 22.8003 19.5658 22.3705 19.9956C21.9408 20.4254 21.3579 20.6668 20.7501 20.6668C20.1423 20.6668 19.5594 20.4254 19.1296 19.9956C18.6999 19.5658 18.4584 18.983 18.4584 18.3752C18.4584 17.7674 18.6999 17.1845 19.1296 16.7547C19.5594 16.3249 20.1423 16.0835 20.7501 16.0835C21.3579 16.0835 21.9408 16.3249 22.3705 16.7547C22.8003 17.1845 23.0417 17.7674 23.0417 18.3752ZM13.8751 18.3752C13.8751 18.983 13.6336 19.5658 13.2039 19.9956C12.7741 20.4254 12.1912 20.6668 11.5834 20.6668C10.9756 20.6668 10.3927 20.4254 9.96296 19.9956C9.53319 19.5658 9.29175 18.983 9.29175 18.3752C9.29175 17.7674 9.53319 17.1845 9.96296 16.7547C10.3927 16.3249 10.9756 16.0835 11.5834 16.0835C12.1912 16.0835 12.7741 16.3249 13.2039 16.7547C13.6336 17.1845 13.8751 17.7674 13.8751 18.3752Z" stroke="white" stroke-width="1.5" stroke-linecap="round" stroke-linejoin="round"/>
<path d="M18.4583 18.375H13.875M23.0417 18.375H23.7411C23.9428 18.375 24.0436 18.375 24.1279 18.364C24.4314 18.3262 24.7136 18.1883 24.9299 17.9722C25.1462 17.756 25.2843 17.4739 25.3223 17.1705C25.3333 17.0853 25.3333 16.9844 25.3333 16.7827V14.25C25.3333 12.6698 24.7056 11.1542 23.5882 10.0368C22.4708 8.91942 20.9552 8.29167 19.375 8.29167M7 6H16.1667C17.4628 6 18.1109 6 18.5133 6.40333C18.9167 6.80483 18.9167 7.45292 18.9167 8.75V16.5417M7 14.0208V16.0833C7 16.9404 7 17.3685 7.18425 17.6875C7.30493 17.8965 7.47849 18.0701 7.6875 18.1908C8.0065 18.375 8.43458 18.375 9.29167 18.375M7 8.75H12.5M7 11.5H10.6667" stroke="white" stroke-width="1.5" stroke-linecap="round" stroke-linejoin="round"/>
</svg>
